<?xml version="1.0" encoding="UTF-8"?>
<svg xmlns="http://www.w3.org/2000/svg" viewBox="-48 -28 96 48">
<line x1="-42" y1="0" x2="-30" y2="0" stroke="#1a1a2e" stroke-width="2"/>
    <line x1="-30" y1="-14" x2="-30" y2="14" stroke="#1a1a2e" stroke-width="2.5"/>
    <line x1="-24" y1="-14" x2="-24" y2="14" stroke="#1a1a2e" stroke-width="2.5"/>
    <line x1="-24" y1="0" x2="-12" y2="0" stroke="#1a1a2e" stroke-width="1.5"/>
    <line x1="-30" y1="-22" x2="8" y2="-22" stroke="#1a1a2e" stroke-width="1.5"/>
    <polygon points="-2,-15 -2,-29 8,-22" fill="#1a1a2e"/>
    <line x1="8" y1="-15" x2="8" y2="-29" stroke="#1a1a2e" stroke-width="1.5"/>
    <line x1="8" y1="-22" x2="12" y2="-22" stroke="#1a1a2e" stroke-width="1.5"/>
    <path d="M-12 0 Q-9 -8 -6 0 Q-3 8 0 0 Q3 -8 6 0 Q9 8 12 0" fill="none" stroke="#1a1a2e" stroke-width="1.5"/>
    <line x1="-12" y1="-22" x2="-12" y2="0" stroke="#1a1a2e" stroke-width="1.5"/>
    <line x1="12" y1="-22" x2="12" y2="0" stroke="#1a1a2e" stroke-width="1.5"/>
    <line x1="12" y1="0" x2="42" y2="0" stroke="#1a1a2e" stroke-width="2"/>
    <line x1="-42" y1="0" x2="-48" y2="0" stroke="#1a1a2e" stroke-width="1.5" stroke-linecap="square"/>
    <line x1="42" y1="0" x2="48" y2="0" stroke="#1a1a2e" stroke-width="1.5" stroke-linecap="square"/>
</svg>
